Coordinates
version=1
nRows=9
nColumns=36
inDegrees=yes

Units are S.I. units (second, meters, Newtons, ...)
If the header above contains a line with 'inDegrees', this indicates whether rotational values are in degrees (yes) or radians (no).

endheader
time	pelvis_tilt	pelvis_list	pelvis_rotation	pelvis_tx	pelvis_ty	pelvis_tz	hip_flexion_r	hip_adduction_r	hip_rotation_r	knee_angle_r	knee_angle_r_beta	ankle_angle_r	subtalar_angle_r	mtp_angle_r	hip_flexion_l	hip_adduction_l	hip_rotation_l	knee_angle_l	knee_angle_l_beta	ankle_angle_l	subtalar_angle_l	mtp_angle_l	lumbar_extension	lumbar_bending	lumbar_rotation	arm_flex_r	arm_add_r	arm_rot_r	elbow_flex_r	pro_sup_r	arm_flex_l	arm_add_l	arm_rot_l	elbow_flex_l	pro_sup_l
      1.14000000	     -1.90915403	      0.53122597	     -3.50487648	      1.19747292	      1.14370560	     -0.21751824	     24.07456811	      1.85676323	      3.27042005	      8.44200588	      0.14734080	      3.10708067	     -3.65838682	     -6.95002337	     -7.21881315	      4.80142818	     -2.83277276	      5.04294205	      0.08801594	     11.06867092	     -4.50664903	     -6.95002337	    -13.01695596	     -0.58215416	     -1.33128140	    -14.26259046	     -6.77217048	    -12.83363177	     52.35479904	    111.90677760	     -9.83403865	     -7.05206140	    -12.31558587	     55.61446925	    109.37638483
      1.15000000	     -1.81070503	      0.42879526	     -3.49412633	      1.20785370	      1.14244917	     -0.21703065	     23.75254944	      2.03666870	      2.35081578	      7.08730918	      0.12369688	      3.72431345	     -2.07744293	     -6.96667109	     -7.86424929	      4.70215402	     -2.94588042	      5.14770136	      0.08984434	     11.54571416	     -4.28290763	     -6.96667109	    -13.23943244	     -0.35569989	     -1.23050708	    -14.21775869	     -6.84404403	    -12.84041911	     52.21696810	    111.89991079	     -9.67628659	     -6.99004468	    -12.25325561	     55.62713440	    109.33096612
      1.16000000	     -1.94613975	      0.31225103	     -3.53360062	      1.21822799	      1.14091013	     -0.21626989	     23.65750700	      2.33198373	      2.02070940	      5.97639163	      0.10430771	      3.86645869	     -1.41477517	     -6.97340629	     -8.15006361	      4.56689401	     -2.97129866	      5.50399699	      0.09606287	     11.91919587	     -4.44619379	     -6.97340629	    -13.14324260	     -0.13365120	     -1.15077182	    -14.17797864	     -6.85516796	    -12.87738483	     52.00888733	    111.88757963	     -9.65610477	     -6.94449980	    -12.24695280	     55.57334975	    109.30889362
      1.17000000	     -2.01333236	      0.28122436	     -3.54792915	      1.22865263	      1.13944667	     -0.21565456	     23.60864158	      2.50905276	      1.48644389	      5.35141581	      0.09339983	      4.05891288	     -1.08699745	     -6.98033690	     -8.52766099	      4.53311799	     -3.04800529	      5.77020705	      0.10070911	     12.19679208	     -4.48118244	     -6.98033690	    -13.13947634	      0.03808887	     -1.02140495	    -14.15245496	     -6.91116303	    -12.87600863	     51.85150608	    111.88618696	     -9.55031513	     -6.86258594	    -12.25233568	     55.57956128	    109.29228710
      1.18000000	     -2.10847054	      0.27419830	     -3.60888427	      1.23918214	      1.13797787	     -0.21490014	     23.62175743	      2.69574044	      1.16408869	      5.07674496	      0.08860591	      4.16549482	     -1.05665578	     -6.98291118	     -8.84848356	      4.52385907	     -3.06006877	      6.10338124	      0.10652410	     12.34814787	     -4.58990030	     -6.98291118	    -13.09218549	      0.14967965	     -0.88343501	    -14.15129798	     -6.93904640	    -12.87941175	     51.71939332	    111.88257469	     -9.51821840	     -6.75907932	    -12.25799768	     55.59627733	    109.28744123
      1.19000000	     -2.13935368	      0.20954269	     -3.64797809	      1.24981455	      1.13663162	     -0.21417420	     23.60424990	      2.91437645	      0.85999493	      5.16623840	      0.09016787	      4.16647340	     -1.10118747	     -6.98603887	     -9.19181671	      4.45248185	     -3.06354255	      6.55335274	      0.11437758	     12.56980260	     -4.75562753	     -6.98603887	    -13.12559829	      0.35739791	     -0.80992019	    -14.08841467	     -6.97684942	    -12.92366327	     51.57765497	    111.87746757	     -9.50320487	     -6.65391768	    -12.27848572	     55.55278179	    109.27589785
      1.20000000	     -2.16864203	      0.18119793	     -3.70717747	      1.26059516	      1.13532800	     -0.21342380	     23.60160584	      3.09665246	      0.73423242	      5.54133962	      0.09671462	      4.09686314	     -1.22853467	     -6.98782365	     -9.54330301	      4.42424223	     -2.99091872	      6.99161258	      0.12202666	     12.65566086	     -4.84748722	     -6.98782365	    -13.14124198	      0.53153547	     -0.76168760	    -14.04572439	     -7.02356040	    -12.97839412	     51.48975000	    111.87278109	     -9.55122134	     -6.55299584	    -12.29087245	     55.51063081	    109.26802741
      1.21000000	     -2.24867880	      0.15150043	     -3.68986366	      1.27152805	      1.13398812	     -0.21276342	     23.72258689	      3.23578834	      0.34000029	      6.24767623	      0.10904252	      3.88887716	     -1.73874223	     -6.99294123	     -9.73942003	      4.37029379	     -3.04668655	      7.62723784	      0.13312041	     12.89560924	     -5.09653873	     -6.99294123	    -13.07289083	      0.72572681	     -0.74747277	    -14.03162363	     -7.00709847	    -13.12463945	     51.37225372	    111.87283725	     -9.61363509	     -6.39221978	    -12.37219208	     55.46014086	    109.24942454
      1.22000000	     -2.34958772	      0.13873493	     -3.70644626	      1.28255505	      1.13266398	     -0.21208353	     23.87293810	      3.36905982	      0.29557606	      7.13107818	      0.12446079	      3.54025395	     -2.34084009	     -6.99831938	     -9.90285323	      4.33740369	     -3.03445947	      8.28578402	      0.14461421	     12.95597686	     -5.28156409	     -6.99831938	    -12.98222715	      0.90492905	     -0.76190784	    -14.03091556	     -7.00802215	    -13.29585692	     51.29904764	    111.87831977	     -9.71811068	     -6.24048430	    -12.43605135	     55.40114737	    109.23262712
